<?xml version="1.0" standalone="no"?>
<!DOCTYPE svg PUBLIC "-//W3C//DTD SVG 20010904//EN"
 "http://www.w3.org/TR/2001/REC-SVG-20010904/DTD/svg10.dtd">
<svg version="1.0" xmlns="http://www.w3.org/2000/svg"
 width="512.000000pt" height="512.000000pt" viewBox="0 0 512.000000 512.000000"
 preserveAspectRatio="xMidYMid meet">

<g transform="translate(0.000000,512.000000) scale(0.100000,-0.100000)"
fill="#000000" stroke="none">
<path d="M2400 4198 c-167 -508 -306 -929 -308 -935 -3 -10 47 -13 229 -13
164 0 249 -4 284 -14 77 -20 153 -63 205 -115 l48 -48 204 611 205 611 65 3
64 3 198 -603 c109 -332 201 -609 203 -615 4 -10 -92 -13 -461 -13 -259 0
-466 -4 -466 -9 0 -5 11 -29 26 -54 46 -83 48 -99 53 -432 l6 -320 511 -3 511
-2 89 -340 89 -340 473 0 c375 0 473 3 469 13 -2 6 -264 805 -583 1774 l-579
1763 -615 0 -616 0 -304 -922z"/>
<path d="M1331 4505 c-136 -31 -267 -113 -348 -220 -86 -113 -124 -226 -124
-372 0 -102 7 -134 56 -260 51 -133 65 -228 65 -432 0 -97 -3 -186 -6 -198 -6
-23 -7 -23 -224 -23 -189 0 -224 -3 -273 -19 -113 -39 -203 -125 -249 -238
-23 -58 -23 -61 -23 -498 0 -394 2 -445 17 -483 16 -40 16 -46 2 -80 -13 -29
-18 -96 -24 -303 -11 -352 -34 -649 -62 -794 -7 -40 -21 -71 -39 -93 -128
-147 -94 -364 71 -447 100 -51 271 -56 657 -20 230 22 1038 21 1263 -1 91 -9
253 -17 360 -18 184 -1 198 0 254 23 125 50 195 162 183 291 -5 63 -24 106
-72 165 -36 44 -49 92 -65 240 -21 200 -31 355 -39 631 -7 226 -12 297 -25
326 -14 33 -14 40 1 80 14 37 17 100 21 421 4 414 -3 510 -43 592 -46 94 -124
165 -225 205 -25 10 -104 16 -270 20 l-235 5 -3 202 c-3 231 12 335 66 459 43
100 55 166 50 280 -10 209 -111 378 -290 486 -123 75 -292 104 -427 73z m1099
-2987 c0 -29 5 -156 10 -283 23 -549 67 -835 140 -919 17 -18 30 -36 30 -40 0
-11 -251 -6 -429 9 -95 8 -175 15 -176 17 -2 2 -33 136 -70 298 -68 295 -83
353 -84 317 -1 -25 -60 -535 -67 -575 l-5 -32 -361 2 -360 3 -70 170 c-38 94
-74 174 -79 180 -5 5 -9 -66 -9 -177 l0 -187 -42 -5 c-168 -21 -546 -35 -561
-20 -3 3 7 17 23 31 16 13 38 49 50 80 46 123 86 459 95 803 3 107 8 237 11
288 l6 92 974 0 974 0 0 -52z"/>
</g>
</svg>
